<?xml version="1.0" encoding="UTF-8"?>
<svg width="653px" height="423px" viewBox="0 0 653 423" version="1.1" xmlns="http://www.w3.org/2000/svg" xmlns:xlink="http://www.w3.org/1999/xlink">
    <!-- Generator: Sketch 63.1 (92452) - https://sketch.com -->
    <title>Hero Illustration Final</title>
    <desc>Created with Sketch.</desc>
    <defs>
        <polygon id="path-1" points="0 422.631602 652.164698 422.631602 652.164698 0.669042254 0 0.669042254"></polygon>
    </defs>
    <g id="Page-1" stroke="none" stroke-width="1" fill="none" fill-rule="evenodd">
        <g id="(XL)-&gt;1200---Desktop-Opt-A-2-Copy" transform="translate(-1290.000000, -182.000000)">
            <g id="Hero" transform="translate(384.000000, 0.000000)">
                <g id="Hero-Illustration">
                    <g id="Hero-Illustration-Final" transform="translate(906.000000, 182.000000)">

                        <polygon id="Fill-3" fill="#1D4354" points="479 423 565.449042 423 591 353.243981 495.834657 311"></polygon>
                        <polygon id="Fill-4" fill="#1D4354" points="528 324.799566 440.001702 288 430 309.685378 518.483933 359"></polygon>
                        <polygon id="Fill-5" fill="#1D4354" points="551.51423 365.596043 619.583073 388 622 368.929736 597.325585 354.99303 542 330"></polygon>
                        <g id="Group-94">
                            <path d="M553.263141,334.752305 L553.414063,316.44474 C557.506894,313.865642 560.408784,309.395902 560.691203,303.928572 C561.022933,297.530856 557.326086,291.540837 551.446097,288.987126 C543.7401,285.641915 536.084908,289.545657 531.617013,295.359455 L527.567516,297.341194 C526.750146,297.539816 526.46175,298.553833 527.05199,299.152686 L528.719605,301.461479 L525.469548,306.207498 C524.33539,307.865169 524.320448,310.04553 525.433686,311.719629 L529.575827,317.941125 L525.961166,328.275438 C524.780686,331.301062 524.653672,334.670168 525.780358,337.7167 C527.034059,341.1097 529.746175,344.956693 535.585818,346.735329 C535.850306,346.815973 536.108816,346.890643 536.365832,346.957846 C544.515631,349.109832 552.589221,343.149681 553.263141,334.752305" id="Fill-6" fill="#D1D1D1"></path>
                            <path d="M566.979428,312.3936 C565.846765,309.639774 565.619634,306.617137 566.045504,303.670663 C566.126195,303.106158 566.178495,302.54016 566.202403,301.974163 C566.444476,296.196206 563.708451,290.446624 558.496405,287.081999 C551.833415,282.782506 543.278666,283.769642 537.758799,288.980108 C537.32247,289.359431 536.902577,289.759661 536.505099,290.183786 C536.505099,290.183786 536.500616,290.231575 536.494639,290.313712 C536.422914,291.308315 536.210726,298.049513 542.936476,304.312824 C544.257419,303.769227 545.845838,303.936487 547.063676,304.957972 C548.474275,306.139249 548.88819,308.192671 548.052888,309.830929 C547.804838,310.317777 547.476097,310.728461 547.092067,311.058502 C544.965708,312.890901 543.759824,315.583497 544.099026,318.368685 C544.544321,322.018549 546.666197,325.435443 550.200168,327.385821 C555.421179,330.265092 562.075204,328.782148 565.583772,323.962953 C568.140483,320.451975 568.493133,316.076319 566.979428,312.3936" id="Fill-8" fill="#F3756C"></path>
                            <polygon id="Fill-10" fill="#D1D1D1" points="607.656995 348.6421 585.160622 338.340641 580.767441 349.046811 597.516816 364.021111"></polygon>
                            <path d="M605.648235,343.735989 L631.860881,364.03724 C637.85294,368.675734 639.123078,377.207516 634.743345,383.38869 C630.278439,389.690829 621.581734,391.248443 615.204151,386.889214 L588.302643,368.498019 L605.648235,343.735989 Z" id="Fill-12" fill="#1D4354"></path>
                            <polygon id="Fill-14" fill="#1D4354" points="575.50728 335.938063 411.368184 263.548587 411.85233 262.449446 575.99292 334.838922"></polygon>
                            <path d="M413.660408,260.975014 L414.489733,263.11804 C414.787094,263.885647 414.406053,264.750324 413.635005,265.049004 L411.493703,265.876346 C410.724149,266.173532 409.858962,265.792716 409.560106,265.023616 L408.732275,262.882083 C408.433419,262.112983 408.815955,261.248306 409.585508,260.949627 L411.728305,260.122284 C412.497859,259.823605 413.363046,260.205914 413.660408,260.975014" id="Fill-16" fill="#6FDA44"></path>
                            <path d="M416.229373,220.802014 L408.348544,220.802014 C407.966009,220.802014 407.656693,220.49288 407.656693,220.110571 C407.656693,219.728261 407.966009,219.417634 408.348544,219.417634 L416.229373,219.417634 C416.611908,219.417634 416.921224,219.728261 416.921224,220.110571 C416.921224,220.49288 416.611908,220.802014 416.229373,220.802014" id="Fill-18" fill="#73E6FF"></path>
                            <path d="M412.288659,224.741149 C411.907618,224.741149 411.596808,224.430523 411.596808,224.048213 L411.596808,216.172032 C411.596808,215.789722 411.907618,215.480589 412.288659,215.480589 C412.671195,215.480589 412.980511,215.789722 412.980511,216.172032 L412.980511,224.048213 C412.980511,224.430523 412.671195,224.741149 412.288659,224.741149" id="Fill-20" fill="#73E6FF"></path>
                            <path d="M425.389902,237.155019 C425.389902,238.705166 424.131719,239.962607 422.580657,239.962607 C421.028101,239.962607 419.769918,238.705166 419.769918,237.155019 C419.769918,235.603379 421.028101,234.345938 422.580657,234.345938 C424.131719,234.345938 425.389902,235.603379 425.389902,237.155019" id="Fill-22" fill="#FFCC0D"></path>
                            <polygon id="Fill-24" fill="#E0E0E0" points="434.13532 381.87319 434.056123 381.58347 578.339238 342.454952 578.418434 342.746165"></polygon>
                            <path d="M567.746292,332.488911 L579.50627,331.019407 C581.632629,330.85812 583.185185,332.142443 584.358194,333.921079 L589.562768,342.844132 L581.451821,349.12835 L571.467048,348.269646 C570.415075,348.27562 569.363103,347.439317 569.230112,346.395432 C569.143443,345.711456 569.37954,345.084229 569.805409,344.636209 C569.924951,344.512257 569.841272,344.324089 569.66943,344.327076 C568.39481,344.343503 567.777672,343.208521 567.773189,342.240799 C567.770201,341.79278 567.904686,341.376122 568.137794,341.031147 C568.231933,340.892261 568.158714,340.71156 567.995837,340.674225 C567.032027,340.463656 566.31029,339.613912 566.304313,338.589441 C566.301324,337.984615 566.549375,337.438032 566.949842,337.045268 C567.073867,336.924303 567.035016,336.71224 566.875128,336.649517 C566.045803,336.32993 565.463034,335.517522 565.495908,334.569214 C565.536254,333.392417 566.570295,332.494885 567.746292,332.488911" id="Fill-26" fill="#D1D1D1"></path>
                            <path d="M436.470131,388.842878 C437.380147,387.994628 437.540035,386.623688 436.875081,385.572336 C422.28195,362.553101 416.343685,333.561768 422.547932,304.197085 C432.183044,258.594687 468.241495,225.64585 510.28304,219.261574 C511.565131,219.065939 512.513998,217.974265 512.493418,216.679489 C512.467676,215.16369 511.137767,213.979426 509.631534,214.17058 C463.852797,220.000806 424.683257,254.072679 414.610321,301.746419 C407.974227,333.155564 415.27677,364.267522 432.333966,388.656203 C433.235017,389.943512 435.056543,390.160054 436.207138,389.087795 L436.470131,388.842878 Z" id="Fill-28" fill="#336278"></path>
                            <path d="M414.566688,297.659437 L414.566688,297.659437 C412.392512,296.923192 411.226974,294.565117 411.963654,292.392223 L413.363793,288.264471 C414.100473,286.091577 416.45994,284.92822 418.634116,285.664466 C420.808292,286.399217 421.97383,288.757293 421.235656,290.930186 L419.837011,295.059432 C419.100331,297.230832 416.740864,298.395683 414.566688,297.659437" id="Fill-30" fill="#D1D1D1"></path>
                            <path d="M438.205886,291.821446 L434.296851,290.020408 L433.697646,286.712532 C433.374881,284.924935 432.234746,283.389722 430.616442,282.560886 L420.67052,278.751228 C419.458659,278.286781 418.097371,278.867713 417.593799,280.062431 C417.079767,281.282537 417.650581,282.690812 418.871408,283.207527 L427.418684,286.827524 L423.699424,295.935758 C422.98217,297.6905 423.729309,299.700614 425.419339,300.563798 L432.481302,304.162886 L438.205886,291.821446 Z" id="Fill-32" fill="#D1D1D1"></path>
                            <path d="M157.575475,383.086575 C158.60055,383.086575 159.187802,382.541485 159.187802,381.736544 L159.187802,381.708169 C159.187802,380.80765 158.558711,380.343203 157.535129,380.343203 L155.444633,380.343203 L155.444633,383.086575 L157.575475,383.086575 Z M153.342182,378.446588 L157.711454,378.446588 C158.926303,378.446588 159.870688,378.787083 160.498285,379.415803 C161.031743,379.947453 161.31715,380.697139 161.31715,381.599151 L161.31715,381.624539 C161.31715,383.168712 160.483342,384.137928 159.268493,384.58744 L161.604051,387.999854 L159.145962,387.999854 L157.097305,384.942869 L155.444633,384.942869 L155.444633,387.999854 L153.342182,387.999854 L153.342182,378.446588 Z" id="Fill-34" fill="#1D4354"></path>
                            <mask id="mask-2" fill="white">
                                <use xlink:href="#path-1"></use>
                            </mask>
                            <g id="Clip-37"></g>
                            <polygon id="Fill-36" fill="#1D4354" mask="url(#mask-2)" points="163.097584 387.999705 165.200034 387.999705 165.200034 378.446439 163.097584 378.446439"></polygon>
                            <path d="M166.718371,386.608605 L167.961612,385.119687 C168.822316,385.830545 169.723367,386.280057 170.817179,386.280057 C171.67639,386.280057 172.194905,385.939563 172.194905,385.381032 L172.194905,385.351164 C172.194905,384.819514 171.867657,384.547716 170.268779,384.138525 C168.344147,383.647197 167.100907,383.114054 167.100907,381.217439 L167.100907,381.189064 C167.100907,379.456722 168.493575,378.3083 170.448092,378.3083 C171.84076,378.3083 173.028712,378.745865 173.9985,379.523925 L172.906181,381.106927 C172.058925,380.521515 171.225117,380.166086 170.421195,380.166086 C169.614284,380.166086 169.189909,380.534956 169.189909,380.997909 L169.189909,381.026284 C169.189909,381.653511 169.600836,381.858106 171.253509,382.282231 C173.193083,382.785506 174.283907,383.482923 174.283907,385.146568 L174.283907,385.174943 C174.283907,387.073052 172.837445,388.136351 170.775339,388.136351 C169.327383,388.136351 167.865978,387.631583 166.718371,386.608605" id="Fill-38" fill="#1D4354" mask="url(#mask-2)"></path>
                            <polygon id="Fill-39" fill="#1D4354" mask="url(#mask-2)" points="175.997696 387.999705 178.100146 387.999705 178.100146 378.446439 175.997696 378.446439"></polygon>
                            <polygon id="Fill-40" fill="#1D4354" mask="url(#mask-2)" points="180.274173 378.445841 182.213748 378.445841 186.692102 384.328336 186.692102 378.445841 188.76915 378.445841 188.76915 387.999108 186.979004 387.999108 182.349727 381.926952 182.349727 387.999108 180.274173 387.999108"></polygon>
                            <path d="M190.426904,383.249804 L190.426904,383.221429 C190.426904,380.506432 192.544297,378.282762 195.438716,378.282762 C197.160126,378.282762 198.197155,378.745716 199.195334,379.593966 L197.868414,381.188915 C197.131734,380.575128 196.47724,380.219699 195.371473,380.219699 C193.841332,380.219699 192.624988,381.571225 192.624988,383.196041 L192.624988,383.221429 C192.624988,384.968705 193.826389,386.253027 195.520901,386.253027 C196.285972,386.253027 196.968858,386.061872 197.500821,385.679562 L197.500821,384.314596 L195.383428,384.314596 L195.383428,382.498625 L199.53603,382.498625 L199.53603,386.648777 C198.5513,387.482093 197.200471,388.163083 195.453659,388.163083 C192.47556,388.163083 190.426904,386.076806 190.426904,383.249804" id="Fill-41" fill="#1D4354" mask="url(#mask-2)"></path>
                            <polygon id="Fill-42" fill="#1D4354" mask="url(#mask-2)" points="207.450629 380.384123 204.541267 380.384123 204.541267 378.445692 212.462441 378.445692 212.462441 380.384123 209.554574 380.384123 209.554574 388.000452 207.450629 388.000452"></polygon>
                            <path d="M218.119931,384.000983 L216.849794,380.903676 L215.579657,384.000983 L218.119931,384.000983 Z M215.908398,378.376846 L217.847973,378.376846 L221.945286,388.000302 L219.745707,388.000302 L218.871554,385.857276 L214.829529,385.857276 L213.955375,388.000302 L211.811085,388.000302 L215.908398,378.376846 Z" id="Fill-43" fill="#1D4354" mask="url(#mask-2)"></path>
                            <polygon id="Fill-44" fill="#1D4354" mask="url(#mask-2)" points="223.206906 378.445841 225.310851 378.445841 225.310851 386.089052 230.076107 386.089052 230.076107 387.999108 223.206906 387.999108"></polygon>
                            <polygon id="Fill-45" fill="#1D4354" mask="url(#mask-2)" points="231.44666 378.445841 238.656557 378.445841 238.656557 380.315576 233.535662 380.315576 233.535662 382.254006 238.043903 382.254006 238.043903 384.12374 233.535662 384.12374 233.535662 386.130867 238.726788 386.130867 238.726788 387.999108 231.44666 387.999108"></polygon>
                            <polygon id="Fill-46" fill="#1D4354" mask="url(#mask-2)" points="240.38245 378.445841 242.322024 378.445841 246.801873 384.328336 246.801873 378.445841 248.877427 378.445841 248.877427 387.999108 247.088775 387.999108 242.459498 381.926952 242.459498 387.999108 240.38245 387.999108"></polygon>
                            <polygon id="Fill-47" fill="#1D4354" mask="url(#mask-2)" points="253.185135 380.384123 250.275773 380.384123 250.275773 378.445692 258.196947 378.445692 258.196947 380.384123 255.287586 380.384123 255.287586 388.000452 253.185135 388.000452"></polygon>
                            <polygon id="Fill-48" fill="#1CAF9D" mask="url(#mask-2)" points="167.552329 289.772504 167.552329 339.683355 205.508514 365.641597 243.466194 339.683355 243.466194 289.772504"></polygon>
                            <polygon id="Fill-49" fill="#1D4354" mask="url(#mask-2)" points="2.90876384 218.878368 -0.00059771167 218.878368 -0.00059771167 216.939938 7.9205762 216.939938 7.9205762 218.878368 5.01270892 218.878368 5.01270892 226.496191 2.90876384 226.496191"></polygon>
                            <path d="M16.4476803,221.745543 L16.4476803,221.717168 C16.4476803,220.080404 15.2447856,218.715438 13.5517673,218.715438 C11.8602432,218.715438 10.6842455,220.052029 10.6842455,221.690287 L10.6842455,221.717168 C10.6842455,223.356919 11.885646,224.720391 13.5801586,224.720391 C15.2731769,224.720391 16.4476803,223.3838 16.4476803,221.745543 M8.48616087,221.745543 L8.48616087,221.717168 C8.48616087,219.002171 10.6289572,216.777008 13.5801586,216.777008 C16.5298657,216.777008 18.645765,218.975289 18.645765,221.690287 L18.645765,221.717168 C18.645765,224.435152 16.5029686,226.658822 13.5517673,226.658822 C10.6020602,226.658822 8.48616087,224.46054 8.48616087,221.745543" id="Fill-50" fill="#1D4354" mask="url(#mask-2)"></path>
                            <path d="M24.0738835,221.758684 C25.1258561,221.758684 25.7414991,221.131457 25.7414991,220.311582 L25.7414991,220.284701 C25.7414991,219.34386 25.0855105,218.837598 24.033538,218.837598 L22.4077622,218.837598 L22.4077622,221.758684 L24.0738835,221.758684 Z M20.3053114,216.939489 L24.2113572,216.939489 C26.4916272,216.939489 27.8723412,218.292508 27.8723412,220.242886 L27.8723412,220.27126 C27.8723412,222.482982 26.1509316,223.628419 24.006641,223.628419 L22.4077622,223.628419 L22.4077622,226.495743 L20.3053114,226.495743 L20.3053114,216.939489 Z" id="Fill-51" fill="#1D4354" mask="url(#mask-2)"></path>
                            <path d="M37.3290364,221.582314 C38.3541119,221.582314 38.9413636,221.035731 38.9413636,220.230789 L38.9413636,220.203908 C38.9413636,219.303389 38.3122721,218.837449 37.2886908,218.837449 L35.1981943,218.837449 L35.1981943,221.582314 L37.3290364,221.582314 Z M33.0942492,216.940834 L37.4650158,216.940834 C38.6798648,216.940834 39.6227549,217.281328 40.2518465,217.910049 C40.7838098,218.441698 41.0707114,219.192878 41.0707114,220.093396 L41.0707114,220.120278 C41.0707114,221.664451 40.2369037,222.632173 39.0220547,223.083179 L41.357613,226.495593 L38.8995238,226.495593 L36.850867,223.437114 L35.1981943,223.437114 L35.1981943,226.495593 L33.0942492,226.495593 L33.0942492,216.940834 Z" id="Fill-52" fill="#1D4354" mask="url(#mask-2)"></path>
                            <path d="M48.2456423,222.496722 L46.975505,219.397921 L45.7053677,222.496722 L48.2456423,222.496722 Z M46.0326149,216.872585 L47.9721892,216.872585 L52.0695027,226.496041 L49.8699238,226.496041 L48.9957705,224.351522 L44.9537453,224.351522 L44.079592,226.496041 L41.9353014,226.496041 L46.0326149,216.872585 Z" id="Fill-53" fill="#1D4354" mask="url(#mask-2)"></path>
                            <polygon id="Fill-54" fill="#1D4354" mask="url(#mask-2)" points="54.328554 218.878368 51.4191924 218.878368 51.4191924 216.939938 59.3403664 216.939938 59.3403664 218.878368 56.4310048 218.878368 56.4310048 226.496191 54.328554 226.496191"></polygon>
                            <polygon id="Fill-55" fill="#1D4354" mask="url(#mask-2)" points="60.7369197 216.940236 67.948311 216.940236 67.948311 218.811464 62.825922 218.811464 62.825922 220.749894 67.3341622 220.749894 67.3341622 222.619628 62.825922 222.619628 62.825922 224.625262 68.0170478 224.625262 68.0170478 226.494996 60.7369197 226.494996"></polygon>
                            <path d="M71.7769531,218.837598 L71.7769531,224.597634 L73.4027288,224.597634 C75.1226442,224.597634 76.2836991,223.437264 76.2836991,221.745244 L76.2836991,221.718363 C76.2836991,220.026343 75.1226442,218.837598 73.4027288,218.837598 L71.7769531,218.837598 Z M69.6745023,216.939489 L73.4027288,216.939489 C76.4077243,216.939489 78.4817838,219.001872 78.4817838,221.689988 L78.4817838,221.718363 C78.4817838,224.406479 76.4077243,226.495743 73.4027288,226.495743 L69.6745023,226.495743 L69.6745023,216.939489 Z" id="Fill-56" fill="#1D4354" mask="url(#mask-2)"></path>
                            <path d="M87.7908442,221.758684 C88.8428167,221.758684 89.4569654,221.131457 89.4569654,220.311582 L89.4569654,220.284701 C89.4569654,219.34386 88.8024712,218.837598 87.7504986,218.837598 L86.1247229,218.837598 L86.1247229,221.758684 L87.7908442,221.758684 Z M84.0222721,216.939489 L87.9283178,216.939489 C90.2085879,216.939489 91.5878076,218.292508 91.5878076,220.242886 L91.5878076,220.27126 C91.5878076,222.482982 89.8678922,223.628419 87.7236016,223.628419 L86.1247229,223.628419 L86.1247229,226.495743 L84.0222721,226.495743 L84.0222721,216.939489 Z" id="Fill-57" fill="#1D4354" mask="url(#mask-2)"></path>
                            <polygon id="Fill-58" fill="#1D4354" mask="url(#mask-2)" points="92.9310151 216.940236 95.0334659 216.940236 95.0334659 224.58494 99.8002165 224.58494 99.8002165 226.494996 92.9310151 226.494996"></polygon>
                            <path d="M100.746842,222.400398 L100.746842,216.940535 L102.849293,216.940535 L102.849293,222.346635 C102.849293,223.902756 103.627813,224.706204 104.912893,224.706204 C106.194984,224.706204 106.973504,223.928144 106.973504,222.413838 L106.973504,216.940535 L109.077449,216.940535 L109.077449,222.331701 C109.077449,225.225906 107.453167,226.644634 104.884501,226.644634 C102.31733,226.644634 100.746842,225.212466 100.746842,222.400398" id="Fill-59" fill="#1D4354" mask="url(#mask-2)"></path>
                            <path d="M110.352368,225.10285 L111.595608,223.615426 C112.456313,224.32479 113.357363,224.775796 114.451176,224.775796 C115.310386,224.775796 115.828901,224.435301 115.828901,223.875277 L115.828901,223.846903 C115.828901,223.315253 115.501654,223.041961 113.902775,222.63277 C111.978143,222.142936 110.734903,221.609793 110.734903,219.711684 L110.734903,219.684803 C110.734903,217.950968 112.127571,216.804038 114.082089,216.804038 C115.474757,216.804038 116.662709,217.241604 117.632496,218.019664 L116.540178,219.601173 C115.692922,219.015761 114.859114,218.661825 114.055192,218.661825 C113.248281,218.661825 112.823905,219.029201 112.823905,219.493648 L112.823905,219.522022 C112.823905,220.14925 113.234832,220.353845 114.887505,220.776477 C116.827079,221.281245 117.917903,221.977169 117.917903,223.640814 L117.917903,223.669188 C117.917903,225.567297 116.471441,226.630596 114.409336,226.630596 C112.961379,226.630596 111.499974,226.127321 110.352368,225.10285" id="Fill-60" fill="#1D4354" mask="url(#mask-2)"></path>
                            <polygon id="Fill-61" fill="#F86D9C" mask="url(#mask-2)" points="59.205433 128.268243 21.3568357 128.268243 21.3568357 178.179094 59.205433 204.137336 96.9987419 178.179094 96.9987419 128.268243"></polygon>
                            <polygon id="Fill-62" fill="#FBA0BD" mask="url(#mask-2)" points="21.3566863 128.268243 97.2705513 178.179094 97.2705513 128.268243"></polygon>
                            <polygon id="Fill-63" fill="#F1367A" mask="url(#mask-2)" points="21.6280474 178.178945 59.4213563 204.137187 97.2699535 178.178945 97.2699535 128.268094"></polygon>
                            <polygon id="Fill-64" fill="#1D4354" mask="url(#mask-2)" points="314.623619 218.879861 311.714257 218.879861 311.714257 216.941431 319.635431 216.941431 319.635431 218.879861 316.727564 218.879861 316.727564 226.496191 314.623619 226.496191"></polygon>
                            <path d="M328.161788,221.745543 L328.161788,221.717168 C328.161788,220.080404 326.960387,218.715438 325.267369,218.715438 C323.572857,218.715438 322.398353,220.052029 322.398353,221.69178 L322.398353,221.717168 C322.398353,223.356919 323.601248,224.720391 325.294266,224.720391 C326.987284,224.720391 328.161788,223.3838 328.161788,221.745543 M320.200268,221.745543 L320.200268,221.717168 C320.200268,219.002171 322.343065,216.778501 325.294266,216.778501 C328.243973,216.778501 330.361367,218.975289 330.361367,221.69178 L330.361367,221.717168 C330.361367,224.435152 328.217076,226.658822 325.267369,226.658822 C322.316168,226.658822 320.200268,224.46054 320.200268,221.745543" id="Fill-65" fill="#1D4354" mask="url(#mask-2)"></path>
                            <path d="M335.788589,221.758684 C336.840561,221.758684 337.45471,221.131457 337.45471,220.311582 L337.45471,220.286194 C337.45471,219.34386 336.798722,218.837598 335.748243,218.837598 L334.122468,218.837598 L334.122468,221.758684 L335.788589,221.758684 Z M332.020017,216.940983 L335.924568,216.940983 C338.206332,216.940983 339.585552,218.292508 339.585552,220.242886 L339.585552,220.272754 C339.585552,222.482982 337.864143,223.629912 335.721346,223.629912 L334.122468,223.629912 L334.122468,226.495743 L332.020017,226.495743 L332.020017,216.940983 Z" id="Fill-66" fill="#1D4354" mask="url(#mask-2)"></path>
                            <path d="M349.042995,221.582314 C350.066576,221.582314 350.653827,221.035731 350.653827,220.230789 L350.653827,220.203908 C350.653827,219.303389 350.02623,218.837449 349.001155,218.837449 L346.912152,218.837449 L346.912152,221.582314 L349.042995,221.582314 Z M344.809702,216.942327 L349.178974,216.942327 C350.393823,216.942327 351.336713,217.282822 351.965805,217.910049 C352.497768,218.441698 352.78467,219.192878 352.78467,220.09489 L352.78467,220.120278 C352.78467,221.664451 351.950862,222.632173 350.736013,223.083179 L353.071571,226.495593 L350.613482,226.495593 L348.564825,223.438608 L346.912152,223.438608 L346.912152,226.495593 L344.809702,226.495593 L344.809702,216.942327 Z" id="Fill-67" fill="#1D4354" mask="url(#mask-2)"></path>
                            <path d="M359.95975,222.496722 L358.689613,219.399414 L357.419475,222.496722 L359.95975,222.496722 Z M357.748217,216.872585 L359.686297,216.872585 L363.78361,226.496041 L361.584031,226.496041 L360.709878,224.353015 L356.667853,224.353015 L355.7937,226.496041 L353.650903,226.496041 L357.748217,216.872585 Z" id="Fill-68" fill="#1D4354" mask="url(#mask-2)"></path>
                            <polygon id="Fill-69" fill="#1D4354" mask="url(#mask-2)" points="366.041914 218.879861 363.132553 218.879861 363.132553 216.941431 371.053727 216.941431 371.053727 218.879861 368.145859 218.879861 368.145859 226.496191 366.041914 226.496191"></polygon>
                            <polygon id="Fill-70" fill="#1D4354" mask="url(#mask-2)" points="372.451027 216.94158 379.662419 216.94158 379.662419 218.811314 374.54003 218.811314 374.54003 220.749745 379.04827 220.749745 379.04827 222.619479 374.54003 222.619479 374.54003 224.626606 379.731155 224.626606 379.731155 226.494847 372.451027 226.494847"></polygon>
                            <path d="M383.491061,218.837598 L383.491061,224.597634 L385.116836,224.597634 C386.836752,224.597634 387.999301,223.438757 387.999301,221.745244 L387.999301,221.718363 C387.999301,220.026343 386.836752,218.837598 385.116836,218.837598 L383.491061,218.837598 Z M381.38861,216.940983 L385.116836,216.940983 C388.121832,216.940983 390.197386,219.001872 390.197386,221.691482 L390.197386,221.718363 C390.197386,224.406479 388.121832,226.495743 385.116836,226.495743 L381.38861,226.495743 L381.38861,216.940983 Z" id="Fill-71" fill="#1D4354" mask="url(#mask-2)"></path>
                            <polygon id="Fill-72" fill="#5AA2C6" mask="url(#mask-2)" points="313.024889 128.268243 313.024889 178.179094 350.873486 204.137336 388.666795 178.179094 388.666795 128.268243"></polygon>
                            <polygon id="Fill-73" fill="#0B83B2" mask="url(#mask-2)" points="313.295653 178.178945 351.088962 204.137187 388.939053 178.178945 388.939053 128.268094"></polygon>
                            <polygon id="Fill-74" fill="#FFA800" mask="url(#mask-2)" points="205.406903 0.668743574 167.450718 0.668743574 167.450718 50.5795944 205.406903 76.5378364 243.363088 50.5795944 243.363088 0.668743574"></polygon>
                            <polygon id="Fill-75" fill="#FFC32C" mask="url(#mask-2)" points="167.450269 0.668743574 243.364134 0.668743574 205.406455 27.7649548"></polygon>
                            <path d="M227.476062,26.4633092 L216.632078,36.3809646 C216.505064,36.5990007 216.505064,36.8678123 216.632078,37.084355 C217.498759,41.5287071 219.288906,50.633954 219.3427,50.8504967 L206.058558,44.5095293 C205.803036,44.3736301 205.498203,44.3736301 205.244176,44.5095293 L192.067622,51.2298198 C192.067622,50.524936 193.748686,41.3674202 194.453986,37.4099158 C194.50778,37.1425975 194.401686,36.8693057 194.182027,36.705032 C190.712311,33.6166851 183.338043,27.2772111 183.338043,27.2219554 L198.032785,25.055035 C198.325663,25.0311407 198.579691,24.8414791 198.682796,24.5666939 L205.407052,11.8309967 C205.407052,11.8309967 210.070698,20.2851222 212.185103,24.2426266 C212.339014,24.4905306 212.599018,24.6503242 212.890403,24.675712 L227.692732,26.4633092" id="Fill-76" fill="#FFFFFF" mask="url(#mask-2)"></path>
                            <polygon id="Fill-77" fill="#1D4354" mask="url(#mask-2)" points="149.351112 89.5054583 156.577446 89.5054583 156.577446 91.3796727 151.444597 91.3796727 151.444597 93.3225833 155.961803 93.3225833 155.961803 95.1967977 151.444597 95.1967977 151.444597 97.2069112 156.646183 97.2069112 156.646183 99.0811256 149.351112 99.0811256"></polygon>
                            <polygon id="Fill-78" fill="#1D4354" mask="url(#mask-2)" points="166.628715 89.5054583 163.426474 94.1842739 166.766188 99.0811256 164.302122 99.0811256 162.153349 95.798637 159.991127 99.0811256 157.595797 99.0811256 160.934017 94.2111551 157.731776 89.5054583 160.195843 89.5054583 162.193694 92.6102325 164.233385 89.5054583"></polygon>
                            <path d="M171.916969,94.334211 C172.970435,94.334211 173.586078,93.7054905 173.586078,92.8841217 L173.586078,92.8572405 C173.586078,91.9134131 172.93009,91.4071512 171.876623,91.4071512 L170.246365,91.4071512 L170.246365,94.334211 L171.916969,94.334211 Z M168.139431,89.5060557 L172.052948,89.5060557 C174.339195,89.5060557 175.721403,90.8605676 175.721403,92.8154254 L175.721403,92.8438 C175.721403,95.058509 173.997005,96.2084254 171.848232,96.2084254 L170.246365,96.2084254 L170.246365,99.0817229 L168.139431,99.0817229 L168.139431,89.5060557 Z" id="Fill-79" fill="#1D4354" mask="url(#mask-2)"></path>
                            <polygon id="Fill-80" fill="#1D4354" mask="url(#mask-2)" points="177.082094 89.5054583 184.308428 89.5054583 184.308428 91.3796727 179.175579 91.3796727 179.175579 93.3225833 183.692785 93.3225833 183.692785 95.1967977 179.175579 95.1967977 179.175579 97.2069112 184.377165 97.2069112 184.377165 99.0811256 177.082094 99.0811256"></polygon>
                            <path d="M190.294959,94.1563474 C191.321529,94.1563474 191.910275,93.6097637 191.910275,92.8033289 L191.910275,92.7749543 C191.910275,91.872942 191.281183,91.4070018 190.254613,91.4070018 L188.159634,91.4070018 L188.159634,94.1563474 L190.294959,94.1563474 Z M186.0527,89.5059063 L190.430938,89.5059063 C191.65027,89.5059063 192.594654,89.8478945 193.223746,90.476615 C193.757204,91.0112514 194.0456,91.7624305 194.0456,92.6659363 L194.0456,92.6928174 C194.0456,94.2384842 193.210297,95.2091929 191.99246,95.6616924 L194.332501,99.0815736 L191.868435,99.0815736 L189.815295,96.0171211 L188.159634,96.0171211 L188.159634,99.0815736 L186.0527,99.0815736 L186.0527,89.5059063 Z" id="Fill-81" fill="#1D4354" mask="url(#mask-2)"></path>
                            <polygon id="Fill-82" fill="#1D4354" mask="url(#mask-2)" points="197.977795 91.4480703 195.062457 91.4480703 195.062457 89.5051596 203.001562 89.5051596 203.001562 91.4480703 200.086223 91.4480703 200.086223 99.0808269 197.977795 99.0808269"></polygon>
                            <polygon id="Fill-83" fill="#1D4354" mask="url(#mask-2)" points="202.718396 95.8388094 206.933757 95.8388094 206.933757 93.840643 202.718396 93.840643"></polygon>
                            <polygon id="Fill-84" fill="#1D4354" mask="url(#mask-2)" points="207.196003 89.5054583 209.522596 89.5054583 212.027008 96.2496432 214.532914 89.5054583 216.804219 89.5054583 212.931047 99.1498219 211.069175 99.1498219"></polygon>
                            <polygon id="Fill-85" fill="#1D4354" mask="url(#mask-2)" points="218.082724 89.5054583 225.309058 89.5054583 225.309058 91.3796727 220.177703 91.3796727 220.177703 93.3225833 224.693415 93.3225833 224.693415 95.1967977 220.177703 95.1967977 220.177703 97.2069112 225.377795 97.2069112 225.377795 99.0811256 218.082724 99.0811256"></polygon>
                            <polygon id="Fill-86" fill="#1D4354" mask="url(#mask-2)" points="229.283243 91.4480703 226.367904 91.4480703 226.367904 89.5051596 234.307009 89.5051596 234.307009 91.4480703 231.391671 91.4480703 231.391671 99.0808269 229.283243 99.0808269"></polygon>
                            <polygon id="Fill-87" fill="#1D4354" mask="url(#mask-2)" points="237.952005 91.4480703 235.036666 91.4480703 235.036666 89.5051596 242.975771 89.5051596 242.975771 91.4480703 240.060432 91.4480703 240.060432 99.0808269 237.952005 99.0808269"></polygon>
                            <polygon id="Fill-88" fill="#1D4354" mask="url(#mask-2)" points="244.389509 89.5054583 251.615843 89.5054583 251.615843 91.3796727 246.482994 91.3796727 246.482994 93.3225833 251.0002 93.3225833 251.0002 95.1967977 246.482994 95.1967977 246.482994 97.2069112 251.68458 97.2069112 251.68458 99.0811256 244.389509 99.0811256"></polygon>
<!--                            <path d="M255.467497,91.4073005 L255.467497,97.1792834 L257.096261,97.1792834 C258.820659,97.1792834 259.983208,96.0174198 259.983208,94.3209198 L259.983208,94.2940386 C259.983208,92.5975386 258.820659,91.4073005 257.096261,91.4073005 L255.467497,91.4073005 Z M253.359069,89.506205 L257.096261,89.506205 C260.107234,89.506205 262.18727,91.5700809 262.18727,94.2656641 L262.18727,94.2940386 C262.18727,96.9881284 260.107234,99.0818723 257.096261,99.0818723 L253.359069,99.0818723 L253.359069,89.506205 Z" id="Fill-89" fill="#1D4354" mask="url(#mask-2)"></path>-->
<!--                            <path d="M131.369404,62.2349675 L130.248695,60.5220401 C133.11024,58.652306 136.085349,56.8632153 139.088851,55.2085305 L140.078063,57.0006079 C137.117896,58.6313984 134.187615,60.3936079 131.369404,62.2349675 M115.238661,74.5674473 L113.875878,73.0382078 C116.426613,70.7697364 119.102867,68.5595076 121.828432,66.4762175 L123.074661,68.1010344 C120.387947,70.1559499 117.750544,72.3318306 115.238661,74.5674473 M101.110251,89.1474908 L99.5367751,87.8362875 C101.727388,85.2094006 104.04651,82.6303025 106.431379,80.1706761 L107.90175,81.5938843 C105.554237,84.0191625 103.26799,86.5594323 101.110251,89.1474908 M89.2964799,105.651031 L87.5466789,104.587732 C89.3218826,101.669632 91.23456,98.7769204 93.2294227,95.9887466 L94.8955439,97.1789847 C92.9305668,99.9253434 91.0462808,102.77624 89.2964799,105.651031" id="Fill-90" fill="#E0E0E0" mask="url(#mask-2)"></path>-->
<!--                            <path d="M284.967108,65.4944577 C282.225106,63.5351197 279.372527,61.651945 276.491557,59.8986959 L277.555483,58.1499269 C280.481282,59.9285638 283.375701,61.8401131 286.158049,63.8308125 L284.967108,65.4944577 Z M300.559911,78.4944864 C298.137685,76.1498517 295.595916,73.8649529 293.004836,71.7040062 L294.316813,70.1329516 C296.946744,72.3252597 299.527364,74.6445066 301.985454,77.0234894 L300.559911,78.4944864 Z M314.062218,93.6554617 C312.01655,90.9822795 309.840879,88.349419 307.593483,85.8240832 L309.123625,84.4621043 C311.403895,87.0262685 313.61244,89.6994507 315.689488,92.4114613 L314.062218,93.6554617 Z M325.169195,110.651823 C323.538936,107.700869 321.778676,104.772316 319.931746,101.946807 L321.647179,100.826758 C323.521005,103.694082 325.309657,106.665944 326.96233,109.6617 L325.169195,110.651823 Z" id="Fill-91" fill="#E0E0E0" mask="url(#mask-2)"></path>-->
<!--                            <path d="M89.919146,251.805999 C88.0468142,248.940169 86.2566677,245.968307 84.603995,242.971057 L86.39713,241.982428 C88.0258943,244.933382 89.7876494,247.861935 91.6330842,250.687444 L89.919146,251.805999 Z M102.4427,268.16916 C100.16243,265.606489 97.9538851,262.931814 95.8768371,260.221296 L97.5041071,258.977296 C99.5497753,261.648985 101.725446,264.283339 103.972842,266.808674 L102.4427,268.16916 Z M117.251006,282.501299 C114.621075,280.310485 112.041949,277.991238 109.580871,275.609268 L111.006414,274.139765 C113.430135,276.485893 115.971903,278.770792 118.561489,280.928751 L117.251006,282.501299 Z M134.012336,294.482831 C131.086537,292.705687 128.192119,290.792645 125.408276,288.803439 L126.599217,287.1383 C129.342714,289.100625 132.193798,290.982306 135.076263,292.734062 L134.012336,294.482831 Z" id="Fill-92" fill="#E0E0E0" mask="url(#mask-2)"></path>-->
<!--                            <path d="M318.336603,256.643563 L316.670482,255.451832 C318.636954,252.705473 320.519745,249.854576 322.269546,246.979785 L324.019347,248.043085 C322.244143,250.961184 320.331466,253.855389 318.336603,256.643563 M305.134647,272.461633 L303.664276,271.038425 C306.011789,268.614641 308.298036,266.072877 310.457269,263.484819 L312.029251,264.796022 C309.838638,267.422909 307.518022,270.000514 305.134647,272.461633 M289.7361,286.157586 L288.491365,284.531275 C291.178079,282.47636 293.813988,280.300479 296.327365,278.064862 L297.690148,279.592608 C295.139414,281.864067 292.463159,284.071309 289.7361,286.157586 M272.477176,297.425273 L271.487963,295.630208 C274.446635,294.000911 277.376917,292.238702 280.196622,290.397342 L281.317331,292.110269 C278.455786,293.980004 275.480677,295.767601 272.477176,297.425273" id="Fill-93" fill="#E0E0E0" mask="url(#mask-2)"></path>-->
                        </g>
                    </g>
                </g>
            </g>
        </g>
    </g>
</svg>
